<svg id="Слой_1" data-name="Слой 1" xmlns="http://www.w3.org/2000/svg" viewBox="0 0 2000 350"><defs><style>.cls-1{fill:#3861fb;}.cls-2{fill:#526170;}</style></defs><path class="cls-1" d="M24.56,282.19a8.39,8.39,0,0,1-5.77-2.1,6.57,6.57,0,0,1-2.37-5.1V79.69a6.89,6.89,0,0,1,2.37-5.4,8.39,8.39,0,0,1,5.77-2.1H173.72a8.88,8.88,0,0,1,6.1,2.1,6.89,6.89,0,0,1,2.37,5.4v19.8a6.57,6.57,0,0,1-2.37,5.1,8.88,8.88,0,0,1-6.1,2.1H62.18v53.1H166.26a9.3,9.3,0,0,1,6.1,2,6.45,6.45,0,0,1,2.37,5.25v18.6a6.45,6.45,0,0,1-2.37,5.25,9.3,9.3,0,0,1-6.1,1.95H62.18v54.9H176.43a8.87,8.87,0,0,1,6.1,2.1,6.89,6.89,0,0,1,2.37,5.4V275a6.57,6.57,0,0,1-2.37,5.1,8.87,8.87,0,0,1-6.1,2.1Z"/><path class="cls-1" d="M333.93,334.44a7,7,0,0,1-5.1-2,6.64,6.64,0,0,1-2.1-4.94V261.4a52.68,52.68,0,0,1-18.6,15q-11.4,5.67-27.6,5.67-15.3,0-27.15-5.23a55.58,55.58,0,0,1-19.8-14.41,63.67,63.67,0,0,1-12.15-21.53,95.51,95.51,0,0,1-4.8-26.91q-.3-5.25-.3-10.48t.3-10.18a110.94,110.94,0,0,1,5-27.64,61.61,61.61,0,0,1,12-21.68,52.59,52.59,0,0,1,19.8-14.11q11.85-4.95,27.15-4.95,17.4,0,29.25,6.11a53.14,53.14,0,0,1,18.75,15.42V134.83a6.62,6.62,0,0,1,2.1-4.94,7,7,0,0,1,5.1-2h24a7,7,0,0,1,5.1,2,6.62,6.62,0,0,1,2.1,4.94V327.46a6.64,6.64,0,0,1-2.1,4.94,7,7,0,0,1-5.1,2Zm-44-84.1q12,0,19.5-5.24a33,33,0,0,0,11.25-13.24,42.46,42.46,0,0,0,4.05-16.73,105,105,0,0,0,.6-11.35,97.21,97.21,0,0,0-.6-11.05,49.51,49.51,0,0,0-3.9-17.61A33.19,33.19,0,0,0,309.73,161q-7.5-5.52-19.8-5.53-12.6,0-20.1,5.39A29.16,29.16,0,0,0,259.18,175a67.76,67.76,0,0,0-3.75,19.2,127.17,127.17,0,0,0,0,17.46,67.76,67.76,0,0,0,3.75,19.2A29.19,29.19,0,0,0,269.83,245Q277.33,250.35,289.93,250.34Z"/><path class="cls-1" d="M462.73,285.44q-18.3,0-31.65-8.17a53.68,53.68,0,0,1-20.55-23.18q-7.2-15-7.2-35.51V135.07a6.85,6.85,0,0,1,2.1-5,7,7,0,0,1,5.1-2.08h26.4a6.88,6.88,0,0,1,5.25,2.08,7.12,7.12,0,0,1,1.95,5v81.72q0,36.86,32.7,36.85,15.6,0,24.75-9.8t9.15-27.05V135.07a6.85,6.85,0,0,1,2.1-5,7,7,0,0,1,5.1-2.08h26.4a7,7,0,0,1,5.1,2.08,6.85,6.85,0,0,1,2.1,5V275.33a6.85,6.85,0,0,1-2.1,5.06,7,7,0,0,1-5.1,2.08H520a6.84,6.84,0,0,1-5.25-2.08,7.13,7.13,0,0,1-1.95-5.06V263.15a57.36,57.36,0,0,1-20.1,16.35Q480.73,285.44,462.73,285.44Z"/><path class="cls-1" d="M597.84,106.45a6.67,6.67,0,0,1-5-1.87,6.82,6.82,0,0,1-1.85-5V78.82a6.93,6.93,0,0,1,1.85-4.89,6.44,6.44,0,0,1,5-2h25.9a6.92,6.92,0,0,1,5.12,2,6.68,6.68,0,0,1,2,4.89V99.54a6.57,6.57,0,0,1-2,5,7.18,7.18,0,0,1-5.12,1.87Zm.32,175.46a7.16,7.16,0,0,1-5.18-2.07,6.72,6.72,0,0,1-2.13-5V135.28a6.76,6.76,0,0,1,2.13-5,7.2,7.2,0,0,1,5.18-2.07H623.4a6.92,6.92,0,0,1,7.3,7.1V274.82a6.92,6.92,0,0,1-7.3,7.09Z"/><path class="cls-1" d="M740.83,282.19q-18,0-30.3-6.21a39.67,39.67,0,0,1-18.3-18.49q-6-12.27-6-30.61V159.74h-23.7a7,7,0,0,1-5.1-2.07,6.8,6.8,0,0,1-2.1-5V135.48a6.8,6.8,0,0,1,2.1-5,7,7,0,0,1,5.1-2.07h23.7V79.29a7,7,0,0,1,1.95-5,6.84,6.84,0,0,1,5.25-2.07h24.3a7,7,0,0,1,5.1,2.07,6.84,6.84,0,0,1,2.1,5v49.1h37.5a7,7,0,0,1,5.1,2.07,6.84,6.84,0,0,1,2.1,5v17.16a6.84,6.84,0,0,1-2.1,5,7,7,0,0,1-5.1,2.07h-37.5v64.18q0,12.14,4.35,18.93t15.15,6.8h20.7a7.05,7.05,0,0,1,5.1,2.07,6.86,6.86,0,0,1,2.1,5v18.34a6.84,6.84,0,0,1-2.1,5,7,7,0,0,1-5.1,2.07Z"/><path class="cls-1" d="M827.22,335.44a5.86,5.86,0,0,1-4.2-1.75,5.56,5.56,0,0,1-1.8-4.1,15.07,15.07,0,0,1,.15-2.19,6.91,6.91,0,0,1,1-2.48l23.4-54.07-57.6-132.39a13.13,13.13,0,0,1-1.2-4.09,7.67,7.67,0,0,1,2.1-4.53,5.93,5.93,0,0,1,4.5-1.9h24.3a7.45,7.45,0,0,1,5.4,1.75,12.19,12.19,0,0,1,2.7,3.8l39.9,95.57L907,133.49a10,10,0,0,1,2.7-3.94,7.9,7.9,0,0,1,5.4-1.61h24a6.34,6.34,0,0,1,4.35,1.75,5.36,5.36,0,0,1,1.95,4.09,13.21,13.21,0,0,1-1.2,4.68l-84.9,191.43a13.53,13.53,0,0,1-3,3.94,7.9,7.9,0,0,1-5.4,1.61Z"/><path class="cls-1" d="M984.88,282.94a6.32,6.32,0,0,1-4.79-2.1,7.2,7.2,0,0,1-2-5.1V80.14a7.2,7.2,0,0,1,2-5.1,6.32,6.32,0,0,1,4.79-2.1h26.48a6.23,6.23,0,0,1,4.93,2.1,7.49,7.49,0,0,1,1.83,5.1v195.6a7.49,7.49,0,0,1-1.83,5.1,6.23,6.23,0,0,1-4.93,2.1Z"/><path class="cls-1" d="M1068.12,282.94a7.15,7.15,0,0,1-7.2-7.16V135.08A6.88,6.88,0,0,1,1063,130a7,7,0,0,1,5.1-2.09h24.6a7,7,0,0,1,5.1,2.09,6.91,6.91,0,0,1,2.1,5.07V147.3a63.75,63.75,0,0,1,19.95-16q12.15-6.41,30.15-6.41,18.29,0,31.8,8.2a54.63,54.63,0,0,1,20.85,23.1Q1210,171.15,1210,192v83.77a7.15,7.15,0,0,1-7.2,7.16h-26.4a7.15,7.15,0,0,1-7.2-7.16v-82q0-17.28-8.55-27.13t-24.75-9.83q-15.6,0-24.9,9.83t-9.3,27.13v82a7.15,7.15,0,0,1-7.2,7.16Z"/><path class="cls-1" d="M1258.92,282.31a7.17,7.17,0,0,1-7.2-7.2V79.81a7.3,7.3,0,0,1,2.1-5.4,7,7,0,0,1,5.1-2.1H1282c2.79,0,4.84.66,6.15,2a25.49,25.49,0,0,1,2.55,2.85l86.4,134.4V79.81a7.61,7.61,0,0,1,2-5.4,6.82,6.82,0,0,1,5.25-2.1h25.2a7.19,7.19,0,0,1,7.5,7.5v195a7.32,7.32,0,0,1-2.1,5.4,6.94,6.94,0,0,1-5.1,2.1h-23.4c-2.81,0-4.8-.69-6-2.1a17.27,17.27,0,0,0-2.7-2.7l-86.1-131.4v129a7,7,0,0,1-2.1,5.1,7.3,7.3,0,0,1-5.4,2.1Z"/><path class="cls-1" d="M1527.41,282.94q-33.3,0-52.8-18.37t-21-52.24a72.75,72.75,0,0,1-.3-7.32,64.11,64.11,0,0,1,.3-7q1.2-21.54,10.35-37.32a61.82,61.82,0,0,1,25.35-24.25q16.2-8.48,38.1-8.47,24.3,0,40.8,9.61a62,62,0,0,1,24.9,26.7q8.4,17.08,8.4,39.47v6a6.48,6.48,0,0,1-2.1,4.88,7.45,7.45,0,0,1-5.4,2h-99.6v2.3a48.83,48.83,0,0,0,4,18.51,32.33,32.33,0,0,0,11.1,13.64,29.76,29.76,0,0,0,17.55,5.16,35.82,35.82,0,0,0,14.1-2.44,34.46,34.46,0,0,0,9.3-5.59,37.68,37.68,0,0,0,5.1-5.17c1.8-2.3,3.25-3.68,4.35-4.16a13,13,0,0,1,5-.72h25.8a7.19,7.19,0,0,1,5,1.72,4.73,4.73,0,0,1,1.65,4.31q-.3,4.59-5,11.19A57,57,0,0,1,1579,268.3a76.47,76.47,0,0,1-21.75,10.48A98.35,98.35,0,0,1,1527.41,282.94Zm-33-90.42h66.3v-.86a45.61,45.61,0,0,0-3.9-19.52,31.22,31.22,0,0,0-11.4-13.2q-7.5-4.87-18-4.88t-18,4.88a30.23,30.23,0,0,0-11.25,13.2,47.18,47.18,0,0,0-3.75,19.52Z"/><path class="cls-1" d="M1703.81,282.19q-18,0-30.3-6.21a39.76,39.76,0,0,1-18.3-18.49q-6-12.27-6-30.61V159.74h-23.7a7,7,0,0,1-5.1-2.07,6.8,6.8,0,0,1-2.1-5V135.48a6.8,6.8,0,0,1,2.1-5,7,7,0,0,1,5.1-2.07h23.7V79.29a7.07,7.07,0,0,1,2-5,6.87,6.87,0,0,1,5.25-2.07h24.3a7,7,0,0,1,5.1,2.07,6.8,6.8,0,0,1,2.1,5v49.1h37.5a7,7,0,0,1,5.1,2.07,6.8,6.8,0,0,1,2.1,5v17.16a6.8,6.8,0,0,1-2.1,5,7,7,0,0,1-5.1,2.07h-37.5v64.18q0,12.14,4.35,18.93t15.15,6.8h20.7a7,7,0,0,1,5.1,2.07,6.82,6.82,0,0,1,2.1,5v18.34a6.8,6.8,0,0,1-2.1,5,7,7,0,0,1-5.1,2.07Z"/><path class="cls-2" d="M1795.54,94a23.8,23.8,0,0,1-11.37-2.45,21.82,21.82,0,0,1-7.28-6.08v4.78a2.55,2.55,0,0,1-.74,1.87,2.52,2.52,0,0,1-1.88.74H1769a2.55,2.55,0,0,1-2.62-2.61V14.72a2.55,2.55,0,0,1,2.62-2.61h5.46a2.54,2.54,0,0,1,1.94.74,2.67,2.67,0,0,1,.68,1.87V40.88a22.47,22.47,0,0,1,18.42-8.3,24.36,24.36,0,0,1,10.87,2.22,20.51,20.51,0,0,1,7.39,6.08,28.14,28.14,0,0,1,4.38,8.76,38.38,38.38,0,0,1,1.59,10.24c.07,1.21.11,2.35.11,3.41s0,2.2-.11,3.41a38.75,38.75,0,0,1-1.59,10.35,27.39,27.39,0,0,1-4.38,8.7,20.69,20.69,0,0,1-7.39,6A24.36,24.36,0,0,1,1795.54,94Zm-2.39-9.21c3.94,0,7-.86,9.27-2.56a14.27,14.27,0,0,0,4.84-6.71,31,31,0,0,0,1.7-8.93q.12-3.3,0-6.6a31,31,0,0,0-1.7-8.93,14.32,14.32,0,0,0-4.84-6.71c-2.23-1.7-5.33-2.56-9.27-2.56a14.94,14.94,0,0,0-8.87,2.51,15.64,15.64,0,0,0-5.29,6.37,20.09,20.09,0,0,0-1.87,7.84q-.12,1.83-.12,4.38t.12,4.38a25.21,25.21,0,0,0,1.87,8.25,15.55,15.55,0,0,0,5.12,6.65A14.59,14.59,0,0,0,1793.15,84.79Z"/><path class="cls-2" d="M1857.53,94q-11.71,0-18.65-7.22T1831.25,67c-.07-1-.11-2.25-.11-3.81s0-2.82.11-3.81A33.39,33.39,0,0,1,1835,45.26a23.48,23.48,0,0,1,9-9.38,26.59,26.59,0,0,1,13.48-3.3q8.64,0,14.5,3.64A23.23,23.23,0,0,1,1881,46.57a37.4,37.4,0,0,1,3.07,15.7V64.2a2.49,2.49,0,0,1-.74,1.93,2.64,2.64,0,0,1-1.88.69h-39.35v1a23.61,23.61,0,0,0,2,8.7,16.15,16.15,0,0,0,5.23,6.54,13.43,13.43,0,0,0,8.19,2.5,16.27,16.27,0,0,0,6.82-1.25,17.28,17.28,0,0,0,4.44-2.79,16.75,16.75,0,0,0,2.27-2.33,5.79,5.79,0,0,1,1.6-1.76,4.28,4.28,0,0,1,1.81-.28h5.47a2.83,2.83,0,0,1,1.87.62,1.92,1.92,0,0,1,.63,1.76,8.87,8.87,0,0,1-1.82,4.15,21.79,21.79,0,0,1-4.89,4.84,27.53,27.53,0,0,1-7.74,3.92A32.48,32.48,0,0,1,1857.53,94Zm-15.47-35h31.17v-.34a21.08,21.08,0,0,0-1.88-9.1,15.14,15.14,0,0,0-5.4-6.32,15,15,0,0,0-8.42-2.33,14.66,14.66,0,0,0-8.36,2.33,14.9,14.9,0,0,0-5.29,6.32,21.68,21.68,0,0,0-1.82,9.1Z"/><path class="cls-2" d="M1920.77,92.86q-6.37,0-10.35-2.44a14.11,14.11,0,0,1-5.8-6.94,28.14,28.14,0,0,1-1.82-10.64v-30h-8.88a2.55,2.55,0,0,1-1.87-.74,2.52,2.52,0,0,1-.74-1.88V36.33a2.51,2.51,0,0,1,.74-1.87,2.55,2.55,0,0,1,1.87-.74h8.88v-19a2.54,2.54,0,0,1,.73-1.87,2.57,2.57,0,0,1,1.88-.74h5.35a2.53,2.53,0,0,1,2.61,2.61v19h14.11a2.55,2.55,0,0,1,1.87.74,2.51,2.51,0,0,1,.74,1.87V40.2a2.52,2.52,0,0,1-.74,1.88,2.55,2.55,0,0,1-1.87.74h-14.11V72.05a16.51,16.51,0,0,0,1.82,8.41c1.21,2.05,3.38,3.08,6.49,3.08h6.93a2.52,2.52,0,0,1,2.62,2.61v4.1a2.55,2.55,0,0,1-.74,1.87,2.52,2.52,0,0,1-1.88.74Z"/><path class="cls-2" d="M1958.64,94a23.25,23.25,0,0,1-10.35-2.28,19.86,19.86,0,0,1-7.5-6.14,14.35,14.35,0,0,1-2.85-8.75,14.73,14.73,0,0,1,6.37-12.52q6.38-4.65,16.61-6.14l16.94-2.39v-3.3q0-5.46-3.12-8.52t-10.19-3.08a14.77,14.77,0,0,0-8.24,2,11,11,0,0,0-4.38,5.23,2.41,2.41,0,0,1-2.39,1.71h-5.12a2.31,2.31,0,0,1-1.87-.74,2.62,2.62,0,0,1-.63-1.76,9.59,9.59,0,0,1,1.31-4.21,17.2,17.2,0,0,1,4-4.89,23.34,23.34,0,0,1,7-4,28.92,28.92,0,0,1,10.41-1.65,32.82,32.82,0,0,1,11.49,1.76,18.57,18.57,0,0,1,7.33,4.72,18.25,18.25,0,0,1,3.87,6.71,25,25,0,0,1,1.2,7.62V90.25a2.55,2.55,0,0,1-2.62,2.61h-5.23a2.49,2.49,0,0,1-1.94-.74,2.67,2.67,0,0,1-.68-1.87v-4.9a20.66,20.66,0,0,1-4,4,21,21,0,0,1-6.26,3.3A28.24,28.24,0,0,1,1958.64,94Zm2.39-8.53a18.32,18.32,0,0,0,8.53-2,14.08,14.08,0,0,0,6.08-6.2,22.53,22.53,0,0,0,2.22-10.58V63.52l-13.19,1.93q-8.09,1.14-12.17,3.81T1948.4,76a7.68,7.68,0,0,0,1.88,5.29,11.37,11.37,0,0,0,4.78,3.13A17.84,17.84,0,0,0,1961,85.47Z"/></svg>