<svg id="Слой_1" data-name="Слой 1" xmlns="http://www.w3.org/2000/svg" viewBox="0 0 150 200"><defs><style>.cls-1{fill:#fbe73b;}</style></defs><path class="cls-1" d="M75.5,168.67a35.47,35.47,0,0,1-13.09-2.49A35,35,0,0,1,50.18,158c-4.84-5-6.77-10.23-8.18-14a45.15,45.15,0,0,1-2.77-11.45c-1.06-10.47,2.12-18.61,4.7-24.77A89,89,0,0,1,55.8,87.87,114.06,114.06,0,0,1,68,74.43c2.16-2,4.08-3.68,5.53-4.87l2-1.56,2,1.56A113.52,113.52,0,0,1,95.21,87.87a89.75,89.75,0,0,1,11.87,19.91,56.72,56.72,0,0,1,4.7,24.77A39.28,39.28,0,0,1,110,142.72,38.79,38.79,0,0,1,100.83,158C95.71,163.18,90.74,168.67,75.5,168.67Z"/></svg>