<svg id="Слой_1" data-name="Слой 1" xmlns="http://www.w3.org/2000/svg" viewBox="0 0 150 200"><defs><style>.cls-1{fill:#f7931e;}.cls-2{fill:#fbe73b;}</style></defs><path class="cls-1" d="M75.78,172.78a48.35,48.35,0,0,1-17.92-3.41,47.69,47.69,0,0,1-16.74-11.18c-6.63-6.91-9.27-14-11.2-19.17a62.46,62.46,0,0,1-3.79-15.67C24.68,109,29,97.87,32.57,89.44A121.88,121.88,0,0,1,48.81,62.2,155.66,155.66,0,0,1,65.49,43.8c3-2.79,5.58-5,7.57-6.67L75.78,35l2.72,2.13A156.48,156.48,0,0,1,102.75,62.2,122.26,122.26,0,0,1,119,89.44c4.83,11.52,7,22.93,6.43,33.91a54.26,54.26,0,0,1-2.49,13.91,53.28,53.28,0,0,1-12.49,20.93C103.43,165.26,96.64,172.78,75.78,172.78Z"/><path class="cls-2" d="M75.5,168.67a35.47,35.47,0,0,1-13.09-2.49A35,35,0,0,1,50.18,158c-4.84-5-6.77-10.23-8.18-14a45.15,45.15,0,0,1-2.77-11.45c-1.06-10.47,2.12-18.61,4.7-24.77A89,89,0,0,1,55.8,87.87,114.06,114.06,0,0,1,68,74.43c2.16-2,4.08-3.68,5.53-4.87l2-1.56,2,1.56A113.52,113.52,0,0,1,95.21,87.87a89.75,89.75,0,0,1,11.87,19.91,56.72,56.72,0,0,1,4.7,24.77A39.28,39.28,0,0,1,110,142.72,38.79,38.79,0,0,1,100.83,158C95.71,163.18,90.74,168.67,75.5,168.67Z"/></svg>